<svg width="14" height="14" viewBox="0 0 14 14" fill="none" xmlns="http://www.w3.org/2000/svg">
<path fill-rule="evenodd" clip-rule="evenodd" d="M4.80723 4.52772H7.58687V5.95917H7.62727C8.01441 5.26157 8.96101 4.52772 10.3725 4.52772C13.3077 4.52772 13.8504 6.36278 13.8504 8.74996V13.7971H10.9518L10.9513 9.30207C10.9513 8.27425 10.9303 6.95159 9.44398 6.95159C7.93492 6.95159 7.70332 8.07007 7.70332 9.22739V13.7971H4.80723V4.52772ZM3.16453 1.71794C3.16453 2.55366 2.48906 3.23226 1.65719 3.23226C0.824883 3.23226 0.149414 2.55366 0.149414 1.71794C0.149414 0.881778 0.824883 0.203613 1.65719 0.203613C2.48906 0.203613 3.16453 0.881778 3.16453 1.71794ZM0.149414 4.52772H3.16453V13.7971H0.149414V4.52772Z" fill="white"/>
</svg>
